<svg width="322" height="297" viewBox="0 0 322 297" fill="none" xmlns="http://www.w3.org/2000/svg">
<path d="M167.834 122.531C165.372 124.067 159.124 128.467 163.251 131.051C164.993 132.135 166.659 133.112 167.53 134.964C168.022 135.976 167.984 137.06 168.326 138.142C168.893 139.993 170.37 139.784 172.073 139.993C174.497 140.307 175.368 142.717 177.602 142.962C176.656 140.901 175.67 138.84 174.799 136.78C172.717 131.925 170.823 126.931 167.834 122.531Z" fill="#2A0042" stroke="#1C2027" stroke-width="0.395492" stroke-miterlimit="10"/>
<path d="M79.5322 106.29C81.5769 105.173 83.8108 104.265 86.1207 104.3C88.544 104.335 90.2856 105.557 92.1033 106.884C93.3907 107.827 94.7159 108.77 96.3819 108.98C98.578 109.259 99.449 107.967 100.471 106.43C101.607 104.719 103.273 104.125 105.28 103.531C106.605 103.147 108.044 102.763 108.839 101.61C109.483 100.667 109.634 99.5849 110.505 98.7816C112.361 97.0702 115.125 97.1401 117.51 96.6512C120.539 96.0575 122.811 94.0668 123.493 91.3777C118.57 90.5393 113.572 90.26 108.537 91.0283C97.2905 92.7746 87.0673 98.4674 79.5322 106.29Z" fill="#2A0042" stroke="#1C2027" stroke-width="0.395492" stroke-miterlimit="10"/>
<path d="M102.364 211.238C102.857 211.273 103.387 211.344 103.879 211.413C108.688 212.112 113.421 213.16 118.305 213.545C123.076 213.928 127.847 213.999 132.619 213.858C135.459 213.754 138.299 213.614 141.175 213.44C141.819 211.727 141.629 209.771 140.494 208.235C139.737 207.152 138.07 206.594 137.768 205.267C137.464 203.905 138.184 202.472 137.92 201.077C137.541 198.875 135.951 197.617 133.868 196.745C131.104 195.628 128.567 194.72 127.355 191.925C126.143 189.027 126.863 185.953 127.696 183.054C117.321 183.857 106.946 184.242 96.7226 181.902C95.0566 181.518 93.4286 181.099 91.8383 180.61C91.8761 180.679 91.8761 180.784 91.8383 180.888C90.8159 184.172 89.7177 187.63 90.3235 191.053C90.9295 194.58 93.0498 196.745 96.4198 198.247C98.5402 199.19 100.85 200.447 101.077 202.893C101.191 204.15 100.698 205.406 100.623 206.629C100.509 208.34 100.926 209.981 102.289 211.238C102.364 211.204 102.364 211.204 102.364 211.238Z" fill="#F52341" stroke="#1C2027" stroke-width="0.395492" stroke-miterlimit="10"/>
<path d="M68.6658 97.5939C66.3939 98.7813 66.6589 102.239 67.2648 104.23C68.287 107.582 69.688 110.9 71.3542 114.044C74.0046 109.748 77.261 105.801 81.0853 102.309C78.2455 100.039 72.2628 95.708 68.6658 97.5939Z" fill="#DB797E" stroke="#F79899" stroke-width="0.395492" stroke-miterlimit="10"/>
<path d="M70.7855 114.986C69.7631 113.031 68.8166 111.04 68.0213 109.014C67.3397 107.268 66.431 105.382 66.1281 103.531C65.7494 101.436 65.7115 98.4321 67.8321 97.0701C71.9592 94.4157 78.5098 99.1304 81.7662 101.75C83.5837 100.143 85.5526 98.6765 87.6731 97.3144C84.9089 95.9873 81.9554 94.9744 79.0777 93.8569C75.3292 92.3901 71.5806 91.063 67.4155 91.3423C59.7669 91.8312 60.9406 101.016 61.8873 105.976C62.9095 111.319 65.03 116.418 67.5291 121.308C68.5134 119.073 69.6116 116.977 70.7855 114.986Z" fill="white"/>
<path d="M74.6852 210.296C75.1775 210.436 75.6318 210.541 76.124 210.681C80.8572 211.903 85.3631 212.112 90.2476 211.589C93.9206 211.204 97.4417 210.925 101.039 211.135C99.6759 209.422 99.5244 207.292 99.9029 205.196C100.13 203.974 100.433 202.682 99.7137 201.565C99.1835 200.726 98.2749 200.133 97.4039 199.644C95.9272 198.841 94.2613 198.351 92.9361 197.339C87.4834 193.182 89.301 185.954 90.9669 180.61C91.0049 180.505 91.0806 180.401 91.1564 180.365C89.0359 179.702 86.9534 178.933 84.9088 178.06C83.2048 180.855 81.0086 183.263 77.2221 183.334C75.4805 183.367 73.5493 182.67 72.4135 181.413C71.0124 182.076 69.2327 183.018 67.5289 183.229C66.8093 186.024 65.522 189.027 67.3017 191.716C68.5134 193.567 70.5958 194.823 72.1103 196.431C75.4426 199.993 74.9503 205.79 74.723 210.191C74.723 210.191 74.723 210.227 74.6852 210.296Z" fill="#F52341" stroke="#1C2027" stroke-width="0.395492" stroke-miterlimit="10"/>
<path d="M227.849 42.7272C228.682 42.2035 229.666 41.7844 230.689 41.6097C231.181 41.5398 231.9 41.6796 232.317 41.4001C232.619 41.1907 232.809 40.1429 232.961 39.8636C233.719 38.1871 234.778 36.4758 236.557 35.5327C237.921 34.8344 239.663 34.555 241.14 35.1137C242.049 35.4279 242.464 35.9869 243.072 36.6155C243.752 37.314 244.244 37.9426 245.342 37.9077C245.834 37.9077 246.327 37.8029 246.78 37.7679C248.522 37.5934 249.658 37.9426 250.491 39.3745C251.097 40.4222 251.439 41.6796 251.704 42.832C255.907 43.6353 259.844 44.7879 264.237 44.6132C269.16 44.4038 274.951 43.4608 275.936 38.257C276.77 33.9613 275.822 28.8972 272.756 25.5094C269.993 22.4361 265.79 20.2706 261.851 18.8039C253.976 15.8353 244.85 15.3812 236.899 18.3149C229.439 21.0741 223.304 27.0461 220.692 34.0659C218.231 40.6319 219.671 46.9183 222.207 53.1001C223.002 49.2932 224.441 44.9276 227.849 42.7272Z" fill="#2A0042" stroke="#1C2027" stroke-width="0.395492" stroke-miterlimit="10"/>
<path d="M226.75 103.077C226.825 103.95 226.75 104.823 226.523 105.662C225.954 107.652 224.477 109.259 223.758 111.18C222.585 114.323 224.781 116.209 227.696 117.256C229.059 117.745 230.535 118.164 231.483 119.247C232.733 120.749 231.823 121.971 231.785 123.682C231.748 125.743 234.928 124.695 236.028 126.023C236.822 127.001 236.974 128.398 237.693 129.445C238.11 130.074 238.602 130.702 239.094 131.261C239.131 130.773 239.169 130.283 239.169 129.76C239.396 122.95 237.845 115.999 233.794 110.237C231.898 107.582 229.476 105.172 226.75 103.077Z" fill="#2A0042" stroke="#1C2027" stroke-width="0.395492" stroke-miterlimit="10"/>
<path d="M173.438 192.099C174.005 193.81 175.558 194.44 176.997 195.418C180.821 198.073 181.918 202.577 182.637 206.734C184.266 206.173 185.856 205.546 187.447 204.847C186.35 201.845 185.137 198.876 183.508 196.082C180.896 191.471 177.187 187.595 172.717 184.802C173.096 185.814 173.173 186.931 173.173 188.013C173.134 189.375 172.982 190.808 173.438 192.099Z" fill="#F52341" stroke="#1C2027" stroke-width="0.395492" stroke-miterlimit="10"/>
<path d="M151.437 102.029C151.967 101.994 152.497 101.924 152.914 102.378C153.785 103.321 152.157 103.217 154.428 103.601C154.997 103.706 155.412 103.706 155.754 104.16C156.17 104.683 155.905 105.277 155.905 105.871C155.943 107.652 156.852 106.919 157.874 107.617C158.556 108.071 158.821 108.874 159.35 109.503C159.767 110.027 160.298 110.446 160.752 110.935C162.077 108.071 163.024 105.102 163.553 102.029C164.009 99.34 164.576 96.0221 163.667 93.3679C162.228 89.0721 157.193 92.2502 154.618 93.8568C151.816 95.5681 149.317 97.6287 147.083 99.8988C148.142 101.575 149.203 102.134 151.437 102.029Z" fill="#DB797E" stroke="#F79899" stroke-width="0.395492" stroke-miterlimit="10"/>
<path d="M252.498 160.178C252.46 160.214 252.385 160.248 252.308 160.283C252.233 160.318 252.158 160.354 252.081 160.388C250.795 160.948 249.507 161.437 248.182 161.925C250.491 162.659 252.271 164.021 254.013 165.768C255.526 167.303 257.345 167.583 259.352 168.316C260.261 168.63 260.905 169.084 261.359 169.887C262.608 172.123 262.987 174.987 264.729 176.874C265.448 177.677 266.09 178.723 266.432 179.807C268.136 175.127 267.075 169.782 265.371 165.174C264.539 162.904 263.328 160.214 261.434 158.467C260.374 157.488 258.898 156.756 257.573 156.093C256.399 157.909 254.392 159.13 252.498 160.178Z" fill="#F52341" stroke="#1C2027" stroke-width="0.395492" stroke-miterlimit="10"/>
<path d="M171.05 183.858C168.401 182.426 165.522 181.344 162.418 180.645C158.215 183.264 153.066 185.779 147.992 185.082C147.007 184.942 146.175 184.557 145.492 183.998C143.335 186.373 139.207 187.63 136.178 185.954C135.459 185.536 134.89 185.046 134.475 184.452C132.808 184.277 131.521 183.683 130.536 182.775C129.93 182.81 129.324 182.88 128.718 182.915C127.62 186.758 126.485 191.96 130.839 194.475C133.452 195.977 136.784 196.257 138.261 199.085C138.905 200.309 139.093 201.705 138.942 203.033C138.828 204.15 138.828 205.162 139.661 206.14C140.078 206.593 140.645 206.907 141.024 207.397C142.425 209.143 142.804 211.344 142.16 213.369C148.749 212.915 155.299 212.252 161.812 211.415C168.59 210.541 175.291 209.214 181.691 207.047C181.313 204.953 180.896 202.857 180.063 200.867C178.927 198.177 177.147 196.746 174.686 195.069C172.944 193.881 172.3 192.345 172.15 190.389C172.035 188.224 172.604 185.674 171.05 183.858Z" fill="#F52341" stroke="#1C2027" stroke-width="0.395492" stroke-miterlimit="10"/>
<path d="M176.087 135.034C177.487 138.246 178.852 141.495 180.253 144.707C181.616 147.885 183.093 151.029 183.887 154.346C184.039 154.906 183.622 155.465 182.979 155.465C181.011 155.465 179.079 155.325 177.147 155.045C177.791 156.162 178.36 157.315 178.775 158.503C179.004 159.097 178.435 159.551 177.866 159.62C177.147 159.689 176.428 159.62 175.822 159.375C175.897 159.829 176.011 160.318 176.201 160.772C176.464 161.471 175.67 161.96 175.026 161.856C174.08 161.68 173.096 161.54 172.15 161.366C172.112 161.366 172.073 161.331 172.035 161.331H171.998C162.569 158.957 152.082 158.049 142.766 161.331C137.692 163.113 134.096 165.941 131.937 170.552C130.915 172.717 129.892 175.162 130.044 177.572C130.157 179.667 131.52 181.902 133.754 182.53C133.338 180.47 134.019 178.095 135.194 176.384C135.838 175.442 137.465 176.315 136.822 177.258C135.459 179.248 134.511 182.88 137.2 184.382C139.547 185.708 142.843 184.451 144.319 182.566C142.956 180.436 142.918 177.397 144.508 175.476C145.227 174.604 146.894 175.476 146.136 176.35C144.848 177.886 144.887 179.911 145.946 181.553C147.31 183.683 149.961 183.509 152.27 183.055C155.981 182.356 159.275 180.505 162.342 178.549C162.38 178.515 162.456 178.445 162.494 178.409C167.909 174.882 174.647 174.708 181.011 174.044C193.694 172.717 206.228 171.144 218.533 167.862C229.513 164.929 240.873 163.184 251.324 158.712C253.861 157.281 257.193 155.394 256.549 152.182C255.98 149.108 252.194 148.165 249.318 147.676C245.227 146.977 240.457 147.117 236.557 147.641C235.876 149.283 235.157 150.889 234.436 152.53C233.982 153.544 232.165 153.09 232.619 152.076C235.459 145.686 238.147 139.329 238.904 132.519C238.26 131.785 237.618 131.017 237.087 130.214C236.064 128.782 235.724 126.337 233.567 126.092C232.315 125.953 231.37 125.953 230.914 124.661C230.27 122.635 232.279 120.505 229.703 119.003C226.902 117.361 222.509 117.047 222.395 113.135C222.32 111.284 223.38 109.643 224.289 108.071C225.425 106.186 226.031 104.334 225.652 102.239C223.001 100.318 220.125 98.6766 217.207 97.3495C210.581 94.3458 202.895 92.4949 195.512 92.7394C187.522 93.0187 179.798 95.4286 172.642 98.6417C172.604 99.0607 172.527 99.4799 172.49 99.899C171.543 106.395 169.385 112.646 167.378 118.898C171.392 123.753 173.701 129.446 176.087 135.034Z" fill="white"/>
<path d="M231.748 105.103C237.769 98.1876 241.366 89.5612 241.972 80.6903C242.276 76.2898 241.897 71.8892 240.722 67.5935C239.434 62.9135 237.2 58.4433 236.67 53.6236C236.33 50.4803 236.86 46.8481 239.473 44.578C242.237 42.1683 246.288 41.9936 249.847 42.5526C250.151 42.5875 250.416 42.6572 250.718 42.6921C250.454 41.5397 250.112 40.2475 249.393 39.3744C247.993 37.7328 245.569 39.3743 243.752 38.5711C243.033 38.2567 242.691 37.663 242.237 37.0693C241.215 35.777 239.661 35.4627 238.033 35.9167C235.118 36.7549 233.982 39.7585 233.075 42.1683C232.998 42.343 232.848 42.5176 232.619 42.4827C225.956 41.7491 223.722 49.9217 222.964 54.7063C223.304 55.4397 223.608 56.1732 223.987 56.9064C227.319 63.9613 230.5 70.9464 229.629 78.8044C228.872 85.6148 225.727 92.0758 220.655 97.0701C224.668 99.2005 228.53 101.89 231.748 105.103Z" fill="white"/>
<path d="M265.712 181.447C265.712 180.33 265.181 179.108 264.576 178.235C264.122 177.571 263.364 177.083 262.986 176.384C262.493 175.512 262.38 174.428 261.888 173.52C261.359 172.543 261.055 171.495 260.563 170.516C259.767 168.979 257.723 168.91 256.17 168.316C255.109 167.897 254.315 167.373 253.519 166.64C251.399 164.615 249.582 163.113 246.705 162.484C242.728 163.881 238.677 164.998 234.513 165.941C234.399 165.977 234.323 165.977 234.209 166.011C239.358 169.747 244.395 173.696 248.597 178.374C251.097 181.168 253.217 184.172 254.921 187.385C257.156 186.862 259.313 186.197 261.396 185.22C262.759 184.592 264.122 183.963 265.068 182.984C264.993 182.775 265.031 182.566 265.144 182.321C265.41 182.041 265.56 181.727 265.712 181.447Z" fill="#F52341" stroke="#1C2027" stroke-width="0.395492" stroke-miterlimit="10"/>
<path d="M259.767 209.84C258.858 203.556 257.647 197.059 255.186 191.122C250.908 180.679 241.782 173.136 232.504 166.395C221.601 168.979 210.771 171.948 199.638 173.659C193.58 174.604 187.484 175.198 181.388 175.826C175.443 176.455 169.12 176.593 163.97 179.667C173.475 182.112 180.896 188.293 185.288 196.465C187.446 200.518 188.961 204.813 190.362 209.143C191.989 214.068 193.504 219.061 194.528 224.126C196.005 231.32 196.118 238.516 195.778 245.814C195.322 255.454 194.263 265.093 192.86 274.663C193.39 274.523 193.921 274.383 194.413 274.139C194.565 274.069 194.755 274.034 194.907 274.069C200.282 272.321 206.037 272.217 211.604 271.135C217.699 269.911 223.456 267.712 229.136 265.407C234.549 263.207 240.115 261.112 245.341 258.527C249.847 256.326 253.784 253.253 258.214 250.948C259.806 243.719 260.713 236.384 260.903 229.016C261.055 222.624 260.677 216.198 259.767 209.84Z" fill="#1C2027" stroke="#1C2027" stroke-width="0.395492" stroke-miterlimit="10"/>
<path d="M51.0206 203.031C53.6332 206.175 58.5179 206.734 62.4556 207.328C66.3557 207.922 70.0285 208.97 73.7772 210.017C73.9287 206.978 74.0043 203.765 73.3608 200.727C72.7927 198.037 70.9374 196.431 68.8926 194.65C67.4159 193.322 65.9771 191.89 65.5605 189.969C65.0683 187.699 65.9771 185.396 66.545 183.229C66.2042 183.195 65.8256 183.16 65.5228 183.02C63.781 182.356 62.4935 181.658 61.7362 179.98C61.6984 179.911 61.6984 179.842 61.6605 179.771C61.5469 179.771 61.3955 179.702 61.2819 179.631C57.9498 177.711 56.9653 174.638 57.4198 171.495C51.3235 173.486 46.7419 178.131 45.606 184.103C44.3564 190.808 47.1962 197.339 50.9828 202.893C50.9828 202.997 51.0206 203.031 51.0206 203.031Z" fill="#F52341" stroke="#1C2027" stroke-width="0.395492" stroke-miterlimit="10"/>
<path d="M61.1685 177.432C61.1306 176.349 61.3199 175.232 61.4714 174.185C61.6608 173.066 63.4782 173.556 63.2888 174.639C62.8724 177.223 62.9103 181.342 66.7345 181.518C68.2112 181.587 70.1424 180.505 71.5055 179.842C71.0891 178.549 71.3161 177.152 71.6568 175.826C71.9219 174.744 73.7773 175.198 73.4744 176.28C73.0579 177.921 72.8307 179.702 74.5725 180.75C76.1628 181.762 78.2074 181.658 79.8735 180.855C81.3881 180.121 82.3726 178.619 83.2056 177.223C78.3589 175.022 73.7773 172.298 69.6124 169.084C68.3249 169.259 67.0375 169.259 66.4316 168.596C65.9773 168.071 66.1288 167.373 66.5073 166.675C64.7655 167.129 63.0239 167.303 61.1685 167.199C59.0102 170.446 58.0636 174.813 61.1685 177.432Z" fill="white"/>
<path d="M273.892 206.558C273.171 203.87 273.209 201.251 273.058 198.527C272.869 195.732 271.998 192.695 270.558 190.214C269.234 187.944 268.097 185.57 266.809 183.3C266.734 183.404 266.621 183.509 266.508 183.544C265.675 184.522 264.539 185.22 263.214 185.85C260.79 187.036 258.291 187.91 255.603 188.538C256.284 189.935 256.889 191.366 257.42 192.868C259.54 198.947 260.715 205.407 261.511 211.729C263.137 224.51 262.532 237.503 259.881 250.146C259.919 250.111 259.957 250.111 259.996 250.076C260.109 250.042 260.184 250.006 260.298 250.006C262.872 249.028 265.41 247.772 267.719 246.339C269.347 245.325 271.126 244.068 272.112 242.461C273.588 239.982 273.815 236.944 274.232 234.185C274.724 230.971 275.217 227.759 275.747 224.546C276.239 221.508 276.997 218.364 276.77 215.256C276.466 212.218 274.686 209.528 273.892 206.558Z" fill="white" stroke="#1C2027" stroke-width="0.395492" stroke-miterlimit="10"/>
<path d="M192.748 222.555C191.688 217.839 190.212 213.231 188.697 208.619C188.432 207.782 188.13 206.943 187.826 206.14C178.7 210.051 168.932 211.973 158.973 213.091C148.787 214.243 138.45 215.22 128.189 215.256C123.229 215.256 118.269 215.011 113.346 214.348C108.234 213.649 103.236 212.252 98.0488 212.287C93.0508 212.323 88.1284 213.509 83.1302 213.231C78.5865 212.951 74.2699 211.519 69.9155 210.296C65.9397 209.177 61.8503 208.759 57.7988 207.886C54.921 207.257 52.157 206.28 50.226 204.254C50.1124 204.254 50.0366 204.254 49.9232 204.254C49.4308 206.978 48.9764 209.702 48.522 212.427C48.0676 214.942 49.1278 218.084 47.3862 220.249C46.7802 221.017 45.9851 221.576 46.0987 222.659C46.1745 223.429 47.0832 224.161 47.6133 224.72C48.3327 225.523 48.9386 226.362 49.1657 227.374C49.6958 229.924 47.6133 232.403 48.5599 234.882C49.0521 236.246 50.1124 237.328 50.453 238.725C50.7939 240.087 50.4909 241.449 50.3396 242.811C50.0366 245.919 50.9454 248.889 52.46 251.647C53.8609 254.266 55.6785 256.676 57.458 259.05C59.3136 261.531 61.1309 264.081 63.0619 266.524C65.031 269.004 67.3028 270.995 70.3698 272.287C73.1719 273.475 76.2389 274.069 79.2302 274.662C82.0701 275.151 84.9478 275.641 87.7875 276.095C91.8391 276.758 95.8906 277.421 99.98 277.946C103.312 278.364 106.682 278.469 110.014 278.574C113.081 278.678 116.186 278.26 119.215 278.434C121.904 278.609 124.1 280.216 126.788 280.32C129.438 280.425 132.164 280.076 134.816 279.9C140.457 279.482 146.099 278.992 151.74 278.678C151.817 278.678 151.854 278.678 151.892 278.678C151.93 278.678 151.969 278.678 152.006 278.678C152.725 278.678 153.445 278.678 154.165 278.714C154.58 278.155 154.013 277.003 154.43 276.373C154.694 275.955 155.186 275.919 155.565 275.676C156.701 275.011 156.17 274.663 156.02 273.72C155.907 273.057 156.133 272.427 156.361 271.798C156.814 270.61 157.42 269.633 157.005 268.34C156.626 267.258 155.717 266.351 155.111 265.407C154.126 263.801 153.786 262.056 153.899 260.204C154.126 255.454 156.057 251.019 157.231 246.442C157.951 243.614 156.928 241.064 156.095 238.376C155.299 235.792 154.505 233.24 153.709 230.657C153.559 230.098 154.467 229.889 154.619 230.412C155.528 233.311 156.399 236.21 157.307 239.11C157.951 241.204 158.745 243.3 158.368 245.499C157.989 247.98 156.891 250.356 156.247 252.764C155.565 255.349 154.845 258.073 154.807 260.763C154.807 262.229 155.111 263.627 155.907 264.918C156.436 265.792 157.193 266.595 157.647 267.537C158.481 269.214 157.912 270.436 157.231 272.043C156.776 273.195 157.497 273.999 157.497 275.047C157.497 275.501 157.345 275.781 156.966 276.059C155.868 276.827 155.641 275.919 155.263 277.841C155.186 278.224 155.224 278.469 155.149 278.714C158.026 278.888 160.866 279.308 163.706 279.517C167.417 279.796 171.089 279.517 174.688 278.609C177.906 277.806 180.821 276.095 184.077 275.465C186.425 275.011 188.924 275.151 191.31 274.802C191.84 271.169 192.294 267.572 192.709 263.941C194.376 250.356 195.891 236.177 192.748 222.555Z" fill="white" stroke="#1C2027" stroke-width="0.395492" stroke-miterlimit="10"/>
<path d="M69.3845 165.592C69.1951 165.906 68.2865 167.477 68.2865 167.477C68.6653 167.722 71.0886 167.094 71.6187 166.989C72.7924 166.745 73.3224 168.421 72.1108 168.665C72.073 168.665 71.9972 168.701 71.9215 168.701C79.5323 174.254 88.3925 178.269 97.8208 180.33C108.196 182.6 118.722 182.006 129.211 181.168C128.15 179.282 127.885 176.838 128.377 174.673C129.551 169.538 132.542 164.509 137.464 161.751C147.802 155.988 161.244 156.896 172.413 159.689C172.452 159.689 172.49 159.724 172.49 159.724C172.529 159.724 172.529 159.724 172.565 159.724C173.021 159.794 173.436 159.864 173.89 159.934C173.74 159.2 173.701 158.467 173.815 157.664C173.89 157.001 174.838 156.407 175.443 157.035C175.745 157.35 176.049 157.559 176.389 157.698C175.859 156.511 175.178 155.359 174.382 154.277C173.89 153.612 174.686 152.844 175.443 152.984C177.525 153.369 179.608 153.612 181.728 153.647C180.819 150.295 179.419 147.012 177.943 143.764C176.92 143.799 175.974 143.554 175.103 142.926C174.572 142.542 174.194 142.018 173.74 141.598C172.565 140.585 171.581 140.83 170.181 140.656C167.113 140.307 167.605 137.617 166.81 135.556C165.977 133.426 163.97 132.658 162.191 131.365C161.244 130.668 160.411 129.724 160.638 128.536C160.865 127.21 162.266 125.917 163.213 124.939C164.424 123.717 165.826 122.634 167.302 121.692C166.81 120.993 166.279 120.329 165.712 119.666C165.599 119.561 165.56 119.421 165.522 119.282C165.447 119.107 165.409 118.897 165.485 118.688C167.263 113.1 169.158 107.547 170.295 101.819C171.354 96.3711 171.506 90.8878 168.968 85.7541C168.514 84.811 167.907 83.6934 166.923 83.1346C165.522 82.3663 163.403 82.925 161.963 83.2394C159.238 83.8331 156.625 84.7412 154.164 85.9635C149.278 88.3384 145.038 91.6911 141.252 95.3582C140.948 95.6726 140.57 95.6726 140.229 95.5329C140.116 95.5329 139.964 95.5329 139.812 95.498C134.815 93.9613 129.665 92.4246 124.439 91.4815C124.023 93.1929 123.001 94.7296 121.486 95.8822C119.139 97.5934 116.337 97.3489 113.61 98.1174C112.74 98.3618 111.869 98.711 111.225 99.3048C110.543 99.9334 110.392 100.737 109.975 101.47C109.521 102.273 108.953 102.902 108.082 103.356C105.734 104.613 102.933 104.439 101.342 106.779C100.093 108.595 98.9945 110.062 96.382 109.782C93.7694 109.468 92.0653 107.652 89.983 106.36C85.7042 103.67 81.3497 106.15 77.5633 108.455C75.4051 110.97 73.5497 113.659 71.9593 116.488C67.7942 124.032 65.333 132.308 64.1593 140.69C63.2505 147.151 62.6447 153.892 59.1613 159.654C59.6156 159.549 60.0699 159.444 60.5243 159.304C61.7359 158.921 62.7203 158.187 63.8563 157.733C64.2729 157.559 64.6516 157.593 64.9923 157.873C66.0904 158.746 65.4466 160.143 64.8787 161.157C64.0078 162.624 62.9096 164.021 61.8495 165.417C64.0078 165.452 66.1283 165.069 68.135 164.266C68.9302 164.055 69.8769 164.753 69.3845 165.592ZM146.022 99.7588C146.022 99.654 146.061 99.5841 146.136 99.4795C149.014 96.5107 152.346 93.9613 156.019 91.9357C158.29 90.6784 161.584 89.0369 163.668 91.5165C165.712 93.9263 164.993 98.1174 164.614 100.876C164.084 104.718 162.91 108.455 161.207 111.982C161.092 112.262 160.79 112.262 160.6 112.122C160.524 112.087 160.449 112.017 160.373 111.947C159.805 111.074 158.896 110.481 158.29 109.677C157.761 108.979 157.269 108.455 156.321 108.106C156.019 108.001 155.829 108.106 155.527 107.966C155.072 107.722 154.883 107.303 154.808 106.814C154.769 106.464 154.844 106.185 154.883 105.871C155.035 104.788 154.504 104.823 153.481 104.613C152.839 104.474 152.61 104.474 152.195 104.02C152.043 103.88 152.195 103.566 152.081 103.426C151.475 102.692 150.68 103.251 149.96 103.181C148.18 103.007 146.817 101.435 146.022 100.108C145.984 99.9684 145.984 99.8636 146.022 99.7588ZM118.987 148.793C120.388 145.51 124.515 142.542 128.453 142.577C132.353 142.611 134.89 145.684 135.609 148.967C135.799 149.806 134.436 150.155 134.247 149.317C133.64 146.592 131.747 143.939 128.453 143.868C125.235 143.799 121.524 146.418 120.35 149.142C120.047 149.911 118.646 149.561 118.987 148.793ZM100.888 150.329C100.888 150.295 100.926 150.295 100.964 150.26C101.645 149.283 103.463 149.561 105.167 149.561C106.605 149.561 112.247 148.863 111.49 151.587C111.149 152.81 109.256 153.543 108.158 154.032C106.795 154.66 105.81 155.009 104.334 154.52C102.743 154.032 99.2976 152.181 100.888 150.329ZM99.0325 158.258C100.244 160.492 103.387 160.458 104.561 158.223C104.409 157.733 104.296 157.279 104.22 156.79C104.068 155.953 105.431 155.603 105.583 156.442C105.962 158.536 106.719 161.052 109.71 160.528C111.679 160.178 113.345 158.781 114.405 157.279C114.898 156.581 116.147 157.244 115.617 157.942C114.141 160.003 111.604 161.996 108.764 161.891C106.984 161.82 105.886 160.912 105.204 159.689C103.235 161.925 99.3355 161.68 97.8208 158.886C97.4043 158.152 98.6159 157.488 99.0325 158.258ZM77.8284 148.164C79.7215 145.161 81.8799 142.542 85.9315 142.332C90.1722 142.123 92.8606 144.498 93.542 148.304C93.6935 149.142 92.3304 149.492 92.1789 148.653C91.914 147.047 91.1567 145.161 89.6041 144.218C88.3546 143.485 86.6128 143.519 85.2119 143.694C82.1449 144.113 80.5547 146.523 79.1157 148.793C78.5857 149.561 77.3361 148.898 77.8284 148.164Z" fill="white"/>
<path d="M102.175 151.831C102.971 152.53 104.977 153.438 105.318 153.438C106.303 153.543 107.211 153.055 108.045 152.635C108.272 152.53 109.938 151.797 109.976 151.517C110.051 150.575 106.151 150.889 105.545 150.889C104.826 150.889 104.144 150.889 103.425 150.889C102.44 150.889 101.948 150.505 102.175 151.693C102.175 151.727 102.175 151.797 102.175 151.831Z" fill="#1C2027" stroke="#1C2027" stroke-width="0.395492" stroke-miterlimit="10"/>
<path d="M274.951 200.064C274.951 197.023 274.384 193.776 273.059 190.948C272.34 189.446 271.393 188.015 270.597 186.547C269.726 184.871 268.893 183.194 267.909 181.553C267.871 181.482 267.832 181.449 267.796 181.413C270.143 176.139 269.159 170.063 267.19 164.755C266.242 162.24 265.031 159.829 263.176 157.769C261.926 156.373 260.071 155.394 258.329 154.557C258.406 154.312 258.481 154.032 258.519 153.787C259.05 150.191 256.209 147.885 252.877 146.803C248.068 145.232 242.426 145.266 237.352 145.895C239.208 141.179 240.609 136.396 240.986 131.296C241.478 124.381 240.23 117.222 236.557 111.11C235.572 109.468 234.361 107.897 233.036 106.43C238.45 100.248 242.047 92.844 243.372 85.0209C244.016 81.1444 244.168 77.2328 243.751 73.3213C243.258 69.1302 242.009 65.2187 240.609 61.2023C239.208 57.186 237.466 52.4711 239.094 48.315C241.063 43.2511 247.386 43.705 251.968 44.7527C257.041 45.9402 261.813 46.8134 267.038 46.1498C271.014 45.6607 275.33 44.6131 277.11 40.946C278.7 37.6282 278.36 33.1928 277.337 29.805C276.201 25.9981 273.438 23.1343 269.991 20.8991C262.987 16.3939 254.163 14.0539 245.608 14.7175C229.666 15.9748 215.693 29.1414 217.7 44.3686C218.95 53.8332 225.614 61.6912 227.432 71.0162C229.211 80.0617 225.84 89.6311 218.95 96.162C212.702 93.1584 205.281 91.2027 198.314 90.9931C189.453 90.7487 180.859 93.1934 172.907 96.6159C173.171 92.006 172.49 87.1166 169.651 83.3097C166.47 79.0488 159.2 81.9477 155.186 83.6589C149.507 86.0688 144.622 89.7708 140.305 93.8569C131.332 91.1328 122.055 88.3738 112.475 88.8627C104.334 89.2817 96.3069 92.0759 89.4913 96.1271C89.4156 96.0921 89.3777 96.0223 89.302 95.9875C86.3486 94.5206 83.1679 93.403 80.0631 92.2156C80.2524 92.2854 79.8737 92.1457 79.5707 92.0409C78.8513 91.7615 78.1319 91.482 77.4125 91.2376C75.5192 90.5741 73.5882 89.9105 71.5815 89.6311C67.7193 89.1071 63.1376 89.4215 60.9793 92.844C58.5181 96.7557 59.389 102.413 60.222 106.639C61.3959 112.507 63.8571 118.06 66.6969 123.403C65.2581 127 64.1221 130.737 63.3269 134.545C61.4715 143.136 62.0015 152.67 56.6248 160.248C56.4735 160.354 56.3599 160.492 56.3599 160.668C56.1705 161.122 56.5112 161.576 56.9657 161.716C57.1172 161.785 57.3444 161.82 57.5336 161.785C58.8968 161.576 60.2978 161.366 61.623 160.912C62.3047 160.668 62.9484 160.318 63.592 159.969C62.759 161.646 59.7677 165.349 59.389 165.872C59.1618 166.186 59.1996 166.5 59.389 166.745C58.8211 167.653 58.3668 168.596 58.0258 169.573C51.0587 171.46 45.4928 176.524 44.0161 183.124C42.5015 189.9 44.8491 196.571 48.5219 202.403V202.439C47.954 205.407 47.5374 208.409 46.9695 211.379C46.7422 212.601 46.5531 213.825 46.5531 215.08C46.5908 217.002 46.7801 218.258 45.417 219.831C43.751 221.716 44.281 223.498 45.8713 225.314C47.1966 226.816 47.7646 227.933 47.3102 229.924C47.0074 231.286 46.4773 232.648 46.5908 234.079C46.6665 235.162 47.1966 236.141 47.7646 237.084C48.9764 239.11 48.8249 240.645 48.5975 242.846C48.3326 245.639 48.9764 248.4 50.1501 250.95C51.5132 253.883 53.4065 256.571 55.3753 259.19C57.3823 261.88 59.3133 264.604 61.3959 267.223C63.4027 269.773 65.6745 272.043 68.7415 273.475C71.9221 274.977 75.4056 275.71 78.8515 276.409C85.4019 277.561 91.9904 278.678 98.5789 279.552C104.41 280.32 110.506 280.703 116.375 280.356C117.89 280.25 119.404 280.111 120.881 280.565C122.206 280.984 123.38 281.611 124.743 281.927C127.242 282.45 129.893 282.065 132.392 281.927C138.867 281.507 145.341 280.879 151.817 280.53C151.855 280.53 151.892 280.53 151.93 280.53C151.968 280.53 152.043 280.53 152.082 280.53C156.133 280.425 160.108 281.157 164.161 281.437C167.909 281.682 171.658 281.368 175.291 280.46C178.7 279.586 181.805 277.737 185.327 277.247C188.43 276.793 191.498 277.038 194.451 276.059C194.566 276.059 194.68 276.059 194.83 275.99C200.586 273.999 206.834 273.999 212.779 272.706C218.535 271.484 224.062 269.388 229.438 267.223C234.892 265.024 240.419 262.893 245.683 260.378C250.908 257.864 255.376 254.266 260.601 251.787C262.987 250.879 265.296 249.797 267.492 248.574C269.309 247.526 271.127 246.338 272.529 244.836C274.196 243.055 274.915 240.821 275.33 238.551C276.58 232.054 277.602 225.385 278.397 218.818C278.775 215.64 278.321 212.951 277.072 209.981C275.747 206.769 274.951 203.52 274.951 200.064ZM257.572 156.162C258.936 156.827 260.375 157.524 261.434 158.536C263.328 160.283 264.501 162.939 265.371 165.243C267.075 169.889 268.098 175.198 266.433 179.877C266.09 178.794 265.448 177.712 264.729 176.943C262.987 175.058 262.609 172.192 261.359 169.958C260.905 169.155 260.261 168.701 259.352 168.387C257.345 167.653 255.526 167.374 254.013 165.837C252.271 164.092 250.454 162.728 248.182 161.996C249.507 161.506 250.795 161.017 252.081 160.458C252.158 160.423 252.233 160.423 252.308 160.352C252.385 160.318 252.46 160.283 252.498 160.248C254.392 159.13 256.397 157.909 257.572 156.162ZM265.145 182.984C264.199 183.963 262.797 184.591 261.472 185.22C259.39 186.197 257.231 186.862 254.997 187.385C253.292 184.172 251.173 181.168 248.674 178.375C244.471 173.694 239.435 169.749 234.286 166.012C234.399 165.977 234.474 165.977 234.588 165.941C238.715 164.964 242.805 163.847 246.78 162.485C249.658 163.113 251.514 164.615 253.596 166.64C254.392 167.374 255.224 167.897 256.247 168.316C257.799 168.91 259.844 168.981 260.64 170.516C261.132 171.494 261.434 172.542 261.965 173.52C262.457 174.428 262.57 175.512 263.062 176.384C263.441 177.083 264.199 177.572 264.652 178.235C265.258 179.143 265.789 180.331 265.789 181.449C265.637 181.762 265.485 182.041 265.296 182.321C265.069 182.566 265.069 182.775 265.145 182.984ZM233.755 110.237C237.806 116.034 239.359 122.949 239.131 129.76C239.131 130.249 239.094 130.737 239.056 131.262C238.564 130.668 238.11 130.074 237.656 129.446C236.935 128.398 236.822 127 235.989 126.023C234.892 124.696 231.712 125.743 231.748 123.682C231.787 122.006 232.733 120.749 231.446 119.247C230.499 118.13 229.022 117.745 227.659 117.257C224.743 116.209 222.547 114.323 223.722 111.18C224.441 109.259 225.956 107.652 226.484 105.662C226.711 104.823 226.788 103.95 226.711 103.077C229.476 105.172 231.9 107.582 233.755 110.237ZM220.73 34.1356C223.343 27.1158 229.476 21.1436 236.935 18.3846C244.889 15.416 254.013 15.9049 261.889 18.8735C265.864 20.3753 270.03 22.5057 272.794 25.5791C275.861 28.9669 276.77 34.031 275.974 38.3265C274.99 43.5304 269.159 44.4734 264.274 44.6828C259.844 44.8576 255.905 43.7399 251.741 42.9017C251.475 41.7143 251.135 40.492 250.529 39.4442C249.697 37.9774 248.561 37.6631 246.819 37.8376C246.327 37.8726 245.873 37.9774 245.381 37.9774C244.281 37.9774 243.751 37.3837 243.107 36.6852C242.501 36.0215 242.086 35.4977 241.176 35.1834C239.7 34.6594 237.958 34.904 236.595 35.6025C234.816 36.5105 233.755 38.2567 232.998 39.9333C232.848 40.2475 232.658 41.2604 232.356 41.4698C231.938 41.7493 231.219 41.6095 230.726 41.6794C229.703 41.8541 228.718 42.2382 227.886 42.7971C224.441 44.9624 223.003 49.3628 222.282 53.2046C219.707 46.9879 218.269 40.7015 220.73 34.1356ZM229.589 78.8044C230.46 70.9464 227.28 63.9613 223.949 56.9066C223.608 56.1732 223.266 55.4397 222.926 54.7063C223.683 49.8868 225.917 41.7493 232.582 42.4827C232.809 42.5176 232.961 42.343 233.036 42.1683C233.946 39.7585 235.08 36.7551 237.996 35.9168C239.661 35.4629 241.176 35.7771 242.199 37.0693C242.653 37.6631 242.993 38.2219 243.714 38.5711C245.494 39.3744 247.955 37.733 249.355 39.3744C250.076 40.2475 250.416 41.5397 250.681 42.6923C250.378 42.6574 250.112 42.5875 249.81 42.5526C246.252 41.9936 242.199 42.1683 239.435 44.5782C236.785 46.8483 236.255 50.4805 236.633 53.6237C237.162 58.4433 239.396 62.9137 240.684 67.5935C241.857 71.8543 242.236 76.2898 241.934 80.6903C241.328 89.5614 237.731 98.1877 231.712 105.103C228.492 101.89 224.629 99.2005 220.578 97.0701C225.69 92.0759 228.832 85.6146 229.589 78.8044ZM172.679 98.6766C179.836 95.4635 187.559 93.0536 195.551 92.7743C202.933 92.5298 210.62 94.3809 217.247 97.3843C220.163 98.7116 223.039 100.353 225.69 102.274C226.069 104.334 225.463 106.185 224.327 108.106C223.38 109.678 222.359 111.319 222.434 113.17C222.547 117.082 226.94 117.431 229.741 119.038C232.279 120.505 230.272 122.669 230.954 124.696C231.37 125.988 232.356 125.988 233.604 126.127C235.762 126.372 236.103 128.816 237.126 130.249C237.693 131.052 238.298 131.82 238.942 132.553C238.185 139.399 235.497 145.755 232.658 152.111C232.204 153.159 234.021 153.613 234.474 152.565C235.193 150.924 235.914 149.318 236.595 147.676C240.494 147.152 245.267 147.012 249.355 147.711C252.233 148.2 256.018 149.142 256.587 152.216C257.193 155.429 253.9 157.35 251.362 158.747C240.911 163.218 229.553 164.964 218.573 167.897C206.304 171.18 193.732 172.751 181.047 174.079C174.686 174.744 167.947 174.918 162.532 178.445C162.456 178.48 162.419 178.515 162.38 178.585C159.314 180.541 156.02 182.39 152.309 183.089C149.961 183.543 147.348 183.718 145.985 181.587C144.925 179.911 144.887 177.921 146.175 176.384C146.932 175.512 145.266 174.638 144.546 175.512C142.956 177.432 142.995 180.47 144.356 182.601C142.88 184.522 139.586 185.779 137.238 184.417C134.55 182.88 135.496 179.248 136.859 177.292C137.503 176.35 135.875 175.476 135.232 176.42C134.058 178.131 133.377 180.505 133.792 182.566C131.559 181.936 130.196 179.702 130.082 177.608C129.969 175.198 130.953 172.786 131.975 170.586C134.134 165.941 137.73 163.148 142.805 161.366C152.119 158.082 162.608 158.99 172.036 161.366H172.073C172.112 161.366 172.15 161.402 172.187 161.402C173.134 161.576 174.119 161.716 175.065 161.891C175.709 161.996 176.504 161.506 176.239 160.808C176.049 160.318 175.935 159.864 175.86 159.411C176.504 159.655 177.185 159.724 177.906 159.655C178.473 159.584 179.042 159.13 178.815 158.536C178.36 157.315 177.829 156.162 177.185 155.08C179.117 155.359 181.047 155.499 183.016 155.499C183.66 155.499 184.077 154.94 183.925 154.382C183.13 151.029 181.653 147.885 180.292 144.742C178.89 141.529 177.527 138.281 176.126 135.068C173.702 129.48 171.431 123.788 167.455 118.968C169.462 112.681 171.619 106.465 172.565 99.9688C172.565 99.5148 172.642 99.0957 172.679 98.6766ZM172.187 190.425C172.3 192.379 172.982 193.916 174.724 195.103C177.185 196.78 178.965 198.177 180.101 200.901C180.934 202.893 181.351 204.987 181.73 207.083C175.33 209.248 168.628 210.575 161.85 211.449C155.337 212.287 148.787 212.951 142.199 213.405C142.843 211.379 142.464 209.177 141.063 207.432C140.684 206.943 140.078 206.629 139.699 206.175C138.867 205.198 138.867 204.184 138.98 203.066C139.132 201.74 138.942 200.343 138.299 199.121C136.822 196.291 133.49 196.011 130.877 194.51C126.523 191.996 127.659 186.791 128.757 182.949C129.363 182.915 129.969 182.844 130.574 182.81C131.559 183.718 132.885 184.311 134.512 184.486C134.929 185.08 135.459 185.57 136.217 185.988C139.245 187.666 143.372 186.407 145.531 184.032C146.212 184.591 147.046 184.976 148.03 185.114C153.103 185.813 158.254 183.298 162.456 180.679C165.561 181.378 168.439 182.461 171.089 183.892C172.604 185.674 172.036 188.224 172.187 190.425ZM172.679 184.8C177.185 187.595 180.859 191.471 183.472 196.082C185.062 198.876 186.311 201.845 187.409 204.848C185.819 205.546 184.229 206.175 182.601 206.734C181.882 202.579 180.784 198.073 176.958 195.418C175.518 194.44 174.005 193.812 173.4 192.101C172.944 190.774 173.096 189.377 173.096 188.015C173.134 186.931 173.058 185.813 172.679 184.8ZM72.1115 196.395C70.5969 194.754 68.5143 193.532 67.3027 191.682C65.523 188.992 66.8105 185.988 67.5299 183.194C69.196 182.984 71.0134 182.076 72.4143 181.378C73.5882 182.601 75.4813 183.298 77.2233 183.298C81.0097 183.264 83.2058 180.819 84.9096 178.026C86.9544 178.899 89.0369 179.667 91.1574 180.331C91.0816 180.365 91.0059 180.47 90.968 180.574C89.302 185.919 87.4844 193.148 92.9369 197.303C94.3001 198.316 95.9283 198.805 97.405 199.61C98.2758 200.098 99.2224 200.692 99.7147 201.531C100.434 202.683 100.093 203.941 99.9041 205.162C99.5254 207.257 99.7147 209.388 101.04 211.099C97.4429 210.89 93.9214 211.169 90.2486 211.553C85.3641 212.078 80.8581 211.867 76.1252 210.645C75.6328 210.505 75.1785 210.401 74.6863 210.261C74.6863 210.225 74.7242 210.191 74.7242 210.121C74.9892 205.756 75.4435 199.993 72.1115 196.395ZM100.661 206.56C100.737 205.302 101.229 204.079 101.116 202.822C100.888 200.413 98.5789 199.155 96.4584 198.177C93.0505 196.676 90.968 194.51 90.3622 190.983C89.7564 187.525 90.8544 184.102 91.8768 180.819C91.9147 180.714 91.9147 180.645 91.8768 180.541C93.4671 181.028 95.0953 181.482 96.7614 181.832C106.985 184.172 117.36 183.788 127.734 182.984C126.902 185.884 126.182 188.958 127.394 191.856C128.567 194.649 131.104 195.557 133.906 196.676C136.027 197.548 137.58 198.841 137.957 201.006C138.223 202.439 137.503 203.836 137.807 205.198C138.072 206.524 139.776 207.083 140.533 208.165C141.631 209.702 141.858 211.658 141.214 213.371C138.374 213.545 135.496 213.685 132.658 213.789C127.886 213.929 123.077 213.894 118.344 213.475C113.46 213.055 108.764 212.043 103.918 211.344C103.388 211.275 102.895 211.204 102.403 211.169C102.403 211.135 102.365 211.135 102.365 211.099C101.002 209.911 100.586 208.305 100.661 206.56ZM177.602 142.926C175.368 142.682 174.497 140.237 172.073 139.957C170.408 139.748 168.893 139.957 168.326 138.106C167.986 137.024 168.022 135.976 167.53 134.928C166.622 133.078 164.955 132.099 163.252 131.017C159.124 128.433 165.372 124.031 167.834 122.495C170.824 126.895 172.756 131.925 174.799 136.744C175.67 138.805 176.655 140.865 177.602 142.926ZM108.537 91.063C113.573 90.2946 118.571 90.5741 123.494 91.4121C122.812 94.1014 120.54 96.0572 117.511 96.6858C115.126 97.1749 112.362 97.0701 110.506 98.8162C109.635 99.6546 109.484 100.702 108.84 101.645C108.045 102.798 106.568 103.147 105.281 103.566C103.274 104.16 101.608 104.753 100.472 106.465C99.4496 108.002 98.6168 109.259 96.3826 109.014C94.6789 108.805 93.3914 107.862 92.104 106.919C90.2865 105.592 88.5447 104.404 86.1213 104.334C83.7737 104.299 81.5776 105.207 79.5329 106.325C87.068 98.467 97.2914 92.7743 108.537 91.063ZM71.3542 114.043C69.6882 110.9 68.2872 107.582 67.2648 104.23C66.659 102.239 66.356 98.7813 68.6658 97.5939C72.263 95.708 78.2455 100.039 81.0855 102.344C77.2612 105.801 74.0046 109.748 71.3542 114.043ZM61.926 105.906C60.9793 100.947 59.8056 91.7615 67.454 91.2726C71.6193 91.028 75.33 92.3204 79.1164 93.7871C81.9941 94.9047 84.9096 95.9525 87.7117 97.2447C85.5913 98.6068 83.6601 100.074 81.8049 101.68C78.5485 99.0607 71.96 94.3458 67.8708 97.0002C65.7503 98.3622 65.7881 101.366 66.1667 103.461C66.5075 105.312 67.3784 107.198 68.06 108.944C68.8551 111.005 69.8018 112.996 70.8242 114.917C69.6124 116.942 68.5522 119.003 67.6057 121.168C65.0687 116.314 62.9861 111.249 61.926 105.906ZM64.8036 161.262C65.4096 160.248 66.0152 158.852 64.9172 157.978C64.5764 157.699 64.1978 157.664 63.7814 157.839C62.6075 158.293 61.6609 159.026 60.4493 159.411C59.9948 159.551 59.5405 159.655 59.086 159.76C62.5696 153.997 63.1754 147.257 64.0842 140.796C65.2581 132.414 67.7193 124.137 71.8844 116.593C73.4367 113.764 75.33 111.075 77.4882 108.56C81.2748 106.255 85.6292 103.775 89.9078 106.465C91.9525 107.757 93.6944 109.573 96.3069 109.887C98.9196 110.202 100.018 108.7 101.267 106.884C102.857 104.579 105.66 104.719 108.007 103.461C108.878 103.007 109.446 102.413 109.9 101.575C110.317 100.807 110.468 100.039 111.15 99.4101C111.794 98.8162 112.664 98.467 113.535 98.2227C116.262 97.4542 119.101 97.6987 121.411 95.9875C122.964 94.8698 123.948 93.2982 124.365 91.5868C129.59 92.5647 134.74 94.1014 139.738 95.6032C139.889 95.6382 140.041 95.6731 140.155 95.6382C140.457 95.7779 140.835 95.743 141.176 95.4635C145 91.7964 149.204 88.4786 154.088 86.0688C156.549 84.8464 159.162 83.9384 161.888 83.3447C163.327 83.0303 165.447 82.4715 166.849 83.2399C167.87 83.7986 168.439 84.9163 168.893 85.8593C171.431 90.9931 171.279 96.4762 170.218 101.925C169.12 107.652 167.19 113.205 165.409 118.793C165.334 119.038 165.372 119.247 165.447 119.387C165.486 119.527 165.524 119.631 165.637 119.771C166.205 120.435 166.735 121.098 167.228 121.797C165.751 122.74 164.349 123.788 163.138 125.045C162.192 126.023 160.79 127.28 160.563 128.642C160.373 129.829 161.207 130.772 162.115 131.471C163.896 132.764 165.901 133.532 166.735 135.662C167.53 137.723 167.038 140.411 170.104 140.761C171.506 140.936 172.49 140.691 173.663 141.704C174.155 142.123 174.497 142.646 175.026 143.031C175.897 143.66 176.845 143.904 177.867 143.87C179.344 147.117 180.707 150.4 181.653 153.753C179.534 153.683 177.45 153.473 175.368 153.089C174.611 152.95 173.815 153.683 174.307 154.382C175.103 155.465 175.747 156.616 176.314 157.804C175.974 157.664 175.67 157.455 175.368 157.141C174.761 156.511 173.815 157.07 173.74 157.769C173.663 158.572 173.663 159.306 173.815 160.038C173.361 159.969 172.944 159.898 172.49 159.829C172.452 159.829 172.452 159.829 172.415 159.829C172.377 159.829 172.377 159.794 172.338 159.794C161.169 156.965 147.727 156.057 137.39 161.856C132.467 164.615 129.439 169.644 128.303 174.778C127.81 176.943 128.038 179.388 129.135 181.273C118.647 182.112 108.121 182.706 97.7459 180.436C88.3176 178.375 79.4192 174.393 71.8466 168.805C71.9221 168.805 71.96 168.77 72.0358 168.77C73.2096 168.527 72.7173 166.849 71.5434 167.094C70.9755 167.199 68.59 167.828 68.2115 167.583C68.2115 167.583 69.1202 166.012 69.3096 165.697C69.7639 164.86 68.8551 164.161 68.0221 164.51C65.9773 165.349 63.895 165.697 61.7366 165.663C62.8726 164.161 63.9329 162.764 64.8036 161.262ZM61.1308 167.269C62.9484 167.339 64.7279 167.165 66.4697 166.711C66.1288 167.408 65.9395 168.142 66.3941 168.631C66.9997 169.295 68.2872 169.295 69.5745 169.119C73.7397 172.297 78.3213 175.058 83.1679 177.258C82.3349 178.62 81.3504 180.156 79.836 180.89C78.1319 181.693 76.1252 181.798 74.5348 180.785C72.8309 179.702 73.0203 177.955 73.4367 176.315C73.7018 175.232 71.8844 174.744 71.6193 175.861C71.2785 177.154 71.0512 178.585 71.4677 179.877C70.1046 180.541 68.1736 181.622 66.6969 181.553C62.9105 181.344 62.8347 177.223 63.2512 174.673C63.4405 173.59 61.623 173.1 61.4338 174.219C61.2444 175.302 61.0929 176.384 61.1308 177.467C58.0636 174.813 59.0103 170.447 61.1308 167.269ZM45.6062 184.172C46.7422 178.2 51.3238 173.52 57.4201 171.564C56.9278 174.673 57.9123 177.781 61.2823 179.702C61.3959 179.771 61.5472 179.807 61.6609 179.842C61.6987 179.911 61.6987 179.982 61.7366 180.051C62.4939 181.727 63.7814 182.426 65.523 183.089C65.8639 183.194 66.2046 183.264 66.5454 183.298C65.9773 185.499 65.0687 187.806 65.5609 190.04C65.9773 191.96 67.3784 193.393 68.893 194.72C70.9376 196.5 72.793 198.142 73.3611 200.797C74.0046 203.8 73.9668 207.014 73.7776 210.087C70.0289 209.073 66.3183 207.991 62.4562 207.397C58.5181 206.803 53.6335 206.244 51.021 203.102C51.021 203.066 50.9831 203.066 50.9831 203.033C47.1587 197.408 44.3568 190.879 45.6062 184.172ZM191.385 274.942C188.999 275.291 186.538 275.151 184.152 275.605C180.897 276.235 177.981 277.91 174.761 278.749C171.166 279.657 167.493 279.936 163.782 279.657C160.904 279.448 158.064 279.028 155.224 278.854C155.3 278.609 155.262 278.364 155.337 277.98C155.754 276.059 155.981 276.967 157.041 276.199C157.42 275.921 157.572 275.641 157.572 275.187C157.572 274.139 156.852 273.335 157.306 272.183C157.95 270.576 158.556 269.353 157.723 267.677C157.269 266.734 156.512 265.966 155.981 265.058C155.186 263.767 154.883 262.37 154.883 260.901C154.883 258.213 155.603 255.489 156.322 252.904C156.966 250.496 158.064 248.12 158.443 245.639C158.783 243.44 158.026 241.344 157.383 239.25C156.474 236.35 155.603 233.451 154.693 230.552C154.543 230.029 153.595 230.238 153.786 230.797C154.58 233.38 155.376 235.93 156.17 238.516C157.004 241.204 158.026 243.789 157.306 246.582C156.133 251.159 154.201 255.594 153.974 260.343C153.899 262.16 154.201 263.941 155.186 265.547C155.793 266.524 156.739 267.398 157.079 268.48C157.496 269.773 156.891 270.75 156.435 271.938C156.17 272.566 155.981 273.195 156.095 273.86C156.247 274.768 156.777 275.117 155.641 275.816C155.224 276.059 154.77 276.095 154.505 276.513C154.088 277.143 154.693 278.295 154.239 278.854C153.52 278.818 152.801 278.818 152.082 278.818C152.043 278.818 152.005 278.818 151.968 278.818C151.93 278.818 151.855 278.818 151.817 278.818C146.175 279.098 140.533 279.622 134.89 280.04C132.24 280.25 129.514 280.565 126.864 280.46C124.137 280.356 121.979 278.749 119.291 278.574C116.262 278.4 113.157 278.783 110.09 278.714C106.72 278.609 103.388 278.504 100.056 278.086C95.9662 277.561 91.9147 276.898 87.8631 276.235C85.0234 275.781 82.1456 275.291 79.3058 274.802C76.3145 274.209 73.2475 273.58 70.4454 272.427C67.3784 271.169 65.1066 269.144 63.1376 266.664C61.2066 264.221 59.389 261.671 57.5336 259.19C55.7541 256.78 53.9365 254.37 52.5354 251.787C51.0587 249.028 50.1122 246.059 50.4152 242.951C50.5288 241.589 50.8316 240.227 50.5288 238.865C50.188 237.434 49.1277 236.35 48.6354 235.022C47.7268 232.543 49.7714 230.029 49.2413 227.514C49.0143 226.466 48.4083 225.663 47.6889 224.86C47.1587 224.266 46.2501 223.567 46.1743 222.799C46.0607 221.716 46.8559 221.157 47.4617 220.389C49.2035 218.224 48.1432 215.08 48.5975 212.567C49.0898 209.842 49.5064 207.118 49.9986 204.394C50.1122 204.394 50.188 204.394 50.3016 204.394C52.2705 206.42 55.0345 207.432 57.8744 208.026C61.926 208.899 65.9773 209.317 69.991 210.436C74.3076 211.658 78.6242 213.091 83.2058 213.371C88.204 213.649 93.1264 212.461 98.1244 212.427C103.312 212.392 108.348 213.789 113.422 214.488C118.344 215.151 123.304 215.43 128.265 215.396C138.526 215.36 148.863 214.383 159.048 213.231C169.007 212.112 178.777 210.191 187.901 206.28C188.203 207.118 188.468 207.955 188.772 208.759C190.287 213.371 191.764 217.98 192.825 222.695C195.928 236.315 194.451 250.496 192.861 264.221C192.408 267.712 191.954 271.344 191.385 274.942ZM245.342 258.561C240.117 261.146 234.551 263.242 229.136 265.443C223.456 267.748 217.664 269.947 211.604 271.169C206.038 272.287 200.321 272.392 194.907 274.105C194.755 274.105 194.603 274.103 194.415 274.174C193.922 274.383 193.392 274.559 192.861 274.697C194.263 265.129 195.322 255.489 195.778 245.848C196.118 238.551 196.005 231.355 194.528 224.161C193.505 219.097 191.99 214.103 190.362 209.177C188.961 204.882 187.446 200.552 185.288 196.5C180.934 188.329 173.513 182.147 163.971 179.702C169.12 176.593 175.443 176.455 181.389 175.861C187.484 175.232 193.582 174.638 199.638 173.694C210.733 171.983 221.601 169.015 232.506 166.431C241.782 173.171 250.946 180.679 255.186 191.157C257.61 197.13 258.86 203.591 259.769 209.876C260.677 216.233 261.055 222.659 260.905 229.085C260.715 236.455 259.807 243.789 258.216 251.019C253.784 253.289 249.847 256.326 245.342 258.561ZM275.672 224.581C275.18 227.793 274.688 231.006 274.157 234.219C273.74 236.944 273.513 240.018 272.037 242.497C271.052 244.139 269.309 245.36 267.644 246.373C265.335 247.806 262.797 249.028 260.223 250.042C260.109 250.042 260.034 250.076 259.921 250.111C259.882 250.146 259.844 250.146 259.807 250.18C262.457 237.538 263.062 224.546 261.434 211.763C260.64 205.441 259.465 198.981 257.345 192.904C256.814 191.437 256.247 190.005 255.526 188.573C258.179 187.944 260.677 187.072 263.137 185.884C264.464 185.254 265.598 184.555 266.433 183.578C266.546 183.543 266.659 183.438 266.734 183.334C268.022 185.603 269.159 187.979 270.483 190.249C271.923 192.728 272.794 195.732 272.983 198.561C273.173 201.321 273.098 203.905 273.817 206.594C274.611 209.527 276.391 212.252 276.618 215.325C276.92 218.364 276.126 221.542 275.672 224.581Z" fill="#1C2027"/>
<path d="M120.351 149.107C121.525 146.383 125.236 143.799 128.454 143.834C131.748 143.904 133.642 146.559 134.248 149.283C134.437 150.12 135.8 149.772 135.611 148.933C134.892 145.65 132.354 142.577 128.454 142.542C124.516 142.508 120.389 145.475 118.988 148.758C118.647 149.561 120.048 149.911 120.351 149.107Z" fill="#1C2027"/>
<path d="M79.0412 148.828C80.48 146.558 82.108 144.148 85.1372 143.73C86.5383 143.554 88.318 143.52 89.5295 144.253C91.082 145.196 91.8393 147.047 92.1044 148.689C92.2559 149.527 93.6189 149.178 93.4674 148.339C92.7859 144.533 90.0975 142.158 85.8567 142.367C81.8431 142.577 79.6847 145.196 77.7537 148.199C77.3373 148.898 78.5867 149.561 79.0412 148.828Z" fill="#1C2027"/>
<path d="M104.334 154.555C105.773 155.045 106.795 154.695 108.158 154.068C109.256 153.578 111.149 152.81 111.49 151.622C112.247 148.898 106.605 149.597 105.167 149.597C103.463 149.597 101.607 149.317 100.964 150.295C100.926 150.329 100.926 150.329 100.888 150.365C99.2976 152.181 102.743 154.032 104.334 154.555ZM103.387 150.889C104.106 150.889 104.788 150.889 105.507 150.889C106.113 150.889 109.975 150.574 109.937 151.517C109.9 151.797 108.271 152.53 108.006 152.635C107.173 153.053 106.265 153.543 105.28 153.438C104.939 153.403 102.933 152.495 102.137 151.831C102.137 151.797 102.137 151.727 102.137 151.691C101.91 150.505 102.44 150.889 103.387 150.889Z" fill="#1C2027" stroke="#1C2027" stroke-width="0.395492" stroke-miterlimit="10"/>
<path d="M105.204 159.689C105.886 160.912 106.984 161.82 108.763 161.891C111.603 161.96 114.14 160.005 115.617 157.942C116.109 157.245 114.897 156.581 114.405 157.279C113.345 158.781 111.679 160.178 109.71 160.528C106.756 161.052 105.999 158.536 105.583 156.442C105.431 155.603 104.068 155.953 104.22 156.791C104.295 157.279 104.409 157.733 104.56 158.223C103.387 160.458 100.244 160.494 99.0322 158.258C98.6157 157.488 97.404 158.153 97.8204 158.921C99.3351 161.682 103.235 161.925 105.204 159.689Z" fill="#1C2027"/>
<path d="M149.998 103.147C150.719 103.217 151.513 102.693 152.119 103.392C152.232 103.532 152.08 103.811 152.232 103.986C152.687 104.44 152.876 104.44 153.52 104.579C154.541 104.789 155.034 104.754 154.92 105.836C154.883 106.151 154.807 106.465 154.845 106.779C154.92 107.268 155.072 107.688 155.564 107.932C155.868 108.072 156.057 107.967 156.36 108.072C157.306 108.421 157.76 108.945 158.329 109.643C158.935 110.447 159.843 111.075 160.411 111.913C160.487 112.018 160.563 112.053 160.638 112.088C160.827 112.228 161.131 112.193 161.244 111.948C162.948 108.421 164.122 104.684 164.652 100.842C165.03 98.0831 165.75 93.8923 163.705 91.4825C161.623 89.0377 158.329 90.679 156.057 91.9015C152.346 93.9271 149.052 96.4767 146.173 99.4451C146.098 99.515 146.06 99.6198 146.06 99.7248C146.023 99.8295 146.06 99.9342 146.098 100.039C146.856 101.401 148.219 102.973 149.998 103.147ZM154.58 93.8225C157.155 92.2159 162.153 89.0377 163.63 93.3334C164.538 95.9878 163.971 99.3056 163.517 101.995C162.986 105.068 162.04 108.037 160.714 110.901C160.26 110.412 159.767 109.993 159.313 109.469C158.821 108.875 158.556 108.037 157.837 107.583C156.776 106.884 155.905 107.618 155.868 105.836C155.868 105.243 156.095 104.684 155.716 104.125C155.376 103.671 154.959 103.671 154.391 103.567C152.119 103.182 153.747 103.287 152.876 102.344C152.459 101.89 151.93 101.995 151.399 101.995C149.165 102.1 148.143 101.541 147.008 99.8295C149.279 97.5942 151.778 95.5337 154.58 93.8225Z" fill="#1C2027"/>
</svg>
